<svg width="1235" height="360" xmlns="http://www.w3.org/2000/svg">
  <defs>
    <linearGradient y2="1" x2="1" y1="0" x1="0" id="hexGrad">
      <stop stop-color="#0b4f82" offset="0%" />
      <stop stop-color="#6cb6df" offset="100%" />
    </linearGradient>
    <linearGradient y2="1" x2="0" y1="0" x1="0" id="facetDark">
      <stop stop-color="#0a4573" offset="0%" />
      <stop stop-color="#08385f" offset="100%" />
    </linearGradient>
    <linearGradient y2="1" x2="1" y1="0" x1="0" id="facetLight">
      <stop stop-color="#8fd3f2" offset="0%" />
      <stop stop-color="#5ca9d6" offset="100%" />
    </linearGradient>
  </defs>
  <g>
    <g id="svg_29">
      <g id="emblem">
        <g id="emblem-mark">
          <polygon fill="url(#hexGrad)" points="212,62 314,121 314,239 212,298 110,239 110,121 "
            id="svg_2" />
          <polygon opacity="0.92" fill="url(#facetDark)" points="212,62 212,180 110,121 " id="svg_3" />
          <polygon opacity="0.78" fill="#1a5f93" points="212,62 314,121 212,180 " id="svg_4" />
          <polygon opacity="0.72" fill="#5aa9d7" points="314,121 314,239 212,180 " id="svg_5" />
          <polygon opacity="0.7" fill="#3789c0" points="314,239 212,298 212,180 " id="svg_6" />
          <polygon opacity="0.9" fill="url(#facetLight)" points="212,298 110,239 212,180 "
            id="svg_7" />
          <polygon opacity="0.72" fill="#327bb0" points="110,239 110,121 212,180 " id="svg_8" />
          <g id="survey-lines" stroke-linejoin="round" stroke-linecap="round" stroke="#e7f6ff"
            fill="none">
            <circle opacity="0.9" stroke-width="4" r="56" cy="180" cx="212" id="svg_9" />
            <circle opacity="0.95" stroke-width="5" r="76" cy="180" cx="212" id="svg_10" />
            <path stroke-width="5.5" d="m212,104l-66,114l132,0l-66,-114z" id="svg_11" />
            <line opacity="0.86" stroke-width="3.2" y2="180" x2="212" y1="104" x1="212" id="svg_12" />
            <line opacity="0.86" stroke-width="3.2" y2="180" x2="212" y1="218" x1="146" id="svg_13" />
            <line opacity="0.86" stroke-width="3.2" y2="180" x2="212" y1="218" x1="278" id="svg_14" />
            <line opacity="0.55" stroke-width="2.4" y2="180" x2="288" y1="180" x1="136" id="svg_15" />
            <line opacity="0.55" stroke-width="2.4" y2="256" x2="212" y1="104" x1="212" id="svg_16" />
          </g>
          <g id="survey-nodes" opacity="0.98" fill="#f7fbff">
            <circle r="10" cy="104" cx="212" id="svg_17" />
            <circle r="10" cy="218" cx="146" id="svg_18" />
            <circle r="10" cy="218" cx="278" id="svg_19" />
            <circle r="12" cy="180" cx="212" id="svg_20" />
          </g>
          <circle opacity="0.28" fill="#0d4673" r="20" cy="180" cx="212" id="svg_21" />
        </g>
      </g>
      <g id="lockup">
        <g id="wordmark" fill="#294760">
          <g transform="matrix(0.765519, 0, 0, 0.778433, 90.0039, 9.11159)" id="svg_22">
            <g id="svg_23">
              <path
                d="m359.40285,205.63671l0,0l20.4599,-1.0693q0.4278,9.7666 3.3506,13.1884l0,0q4.7051,5.5606 17.3946,5.5606l0,0q10.5507,0 15.2558,-3.7783q4.7051,-3.7784 4.7051,-9.125l0,0q0,-4.6338 -3.8496,-7.8418l0,0q-2.709,-2.3526 -14.8638,-7.628q-12.1548,-5.2754 -17.751,-8.8042q-5.5962,-3.5288 -8.8042,-9.1606q-3.208,-5.6318 -3.208,-13.1885l0,0q0,-13.1885 9.5528,-21.8857q9.5527,-8.6973 27.6601,-8.6973l0,0q18.3926,0 28.48,8.626q10.0874,8.626 11.0855,22.9551l0,0l-20.6026,0.9267q-0.7842,-7.4853 -5.418,-11.4775q-4.6337,-3.9922 -13.6875,-3.9922l0,0q-8.9111,0 -12.7251,3.1367q-3.8139,3.1367 -3.8139,7.9131l0,0q0,4.4912 3.4931,7.4141l0,0q3.4932,2.9941 15.4698,8.1982l0,0q18.0361,7.7705 22.9551,12.6182l0,0q7.3427,7.1289 7.3427,18.3213l0,0q0,13.83 -10.9428,23.6323q-10.9429,9.8022 -30.4761,9.8022l0,0q-13.4737,0 -23.3472,-4.5268q-9.8735,-4.5269 -13.937,-12.5825q-4.0635,-8.0557 -3.7783,-18.5352zm106.9385,-15.6123l11.5488,-55.0352l21.458,0l-11.834,56.7461l-2.9228,13.9727q-0.2852,1.7822 -0.2852,3.3506l0,0q0,6.2021 4.5269,10.23q4.5268,4.0278 13.1528,4.0278l0,0q7.7705,0 12.832,-2.9229q5.0615,-2.9228 7.8418,-8.6972q2.7803,-5.7744 5.6319,-19.6045l0,0l11.9765,-57.1026l21.458,0l-11.9053,57.1739q-3.7783,18.0361 -8.6972,27.5888q-4.919,9.5528 -14.8994,15.541q-9.9805,5.9883 -25.2364,5.9883l0,0q-18.25,0 -27.9453,-8.9468q-9.6953,-8.9467 -9.6953,-22.9907l0,0q0,-2.9228 0.499,-6.3447l0,0q0.2852,-2.2813 2.4952,-12.9746l0,0zm128.6103,6.2021l-9.0537,43.2725l-21.5293,0l21.8857,-104.5098l46.4092,0q11.9766,0 18.6421,2.4595q6.6655,2.4595 10.7647,9.0181q4.0991,6.5586 4.0991,15.8974l0,0q0,13.3311 -7.9844,21.9927q-7.9844,8.6616 -24.167,10.729l0,0q4.1348,3.707 7.7705,9.7666l0,0q7.2002,12.2617 16.0401,34.6465l0,0l-23.0977,0q-2.7803,-8.8398 -10.9072,-27.5889l0,0q-4.4199,-10.123 -9.4102,-13.6162l0,0q-3.0654,-2.0674 -10.6933,-2.0674l0,0l-8.7686,0zm9.125,-43.7714l-5.8457,28.0878l11.4063,0q17.3232,0 22.9907,-2.0673q5.6675,-2.0674 8.8755,-6.4873q3.208,-4.42 3.208,-9.2676l0,0q0,-5.7031 -4.6338,-8.5547l0,0q-2.8516,-1.7109 -12.333,-1.7109l0,0l-23.668,0zm177.6572,-17.4659l-57.6015,104.5098l-22.9551,0l-18.749,-104.5098l21.458,0l13.2597,79.0596l43.2725,-79.0596l21.3154,0zm71.6504,104.5098l-81.626,0l21.8145,-104.5098l77.4912,0l-3.6357,17.4659l-55.9619,0l-4.9903,23.7392l54.1084,0l-3.6357,17.4658l-54.1084,0l-6.5586,28.3731l60.8096,0l-3.7071,17.4658zm78.9219,-38.71l-8.127,38.71l-21.458,0l8.4834,-40.7061l-28.8007,-63.8037l22.8837,0l12.9747,29.5137q4.6337,10.6221 6.2021,15.3272l0,0q2.6377,-4.6338 6.1309,-9.8379l0,0l9.9091,-13.8301l14.7569,-21.1729l24.9511,0l-47.9062,65.7998zm45.9863,-2.2812l0,0q0,-9.2676 2.7803,-19.5332l0,0q3.6357,-13.7588 11.0854,-23.8819q7.4498,-10.123 18.7847,-16.0043q11.335,-5.8814 25.8067,-5.8814l0,0q19.3906,0 31.3315,12.0479q11.9409,12.0478 11.9409,31.9375l0,0q0,16.539 -7.7705,32.0087q-7.7705,15.4698 -21.1016,23.8106q-13.331,8.3408 -30.1552,8.3408l0,0q-14.6143,0 -24.5235,-6.6299q-9.9091,-6.6299 -14.0439,-16.4321q-4.1348,-9.8022 -4.1348,-19.7827zm21.2442,-0.4277l0,0q0,10.7646 6.5586,18.0361q6.5586,7.2715 17.2519,7.2715l0,0q8.6973,0 16.7173,-5.7388q8.02,-5.7388 13.2598,-17.3945q5.2397,-11.6558 5.2397,-22.7056l0,0q0,-12.333 -6.6299,-19.355q-6.6299,-7.0219 -16.8955,-7.0219l0,0q-15.7549,0 -25.6284,14.6855q-9.8735,14.6855 -9.8735,32.2227zm119.0576,-1.8536l-9.0537,43.2725l-21.5293,0l21.8857,-104.5098l46.4092,0q11.9766,0 18.6421,2.4595q6.6655,2.4595 10.7646,9.0181q4.0992,6.5586 4.0992,15.8974l0,0q0,13.3311 -7.9844,21.9927q-7.9844,8.6616 -24.167,10.729l0,0q4.1348,3.707 7.7705,9.7666l0,0q7.2002,12.2617 16.04,34.6465l0,0l-23.0976,0q-2.7803,-8.8398 -10.9072,-27.5889l0,0q-4.42,-10.123 -9.4102,-13.6162l0,0q-3.0654,-2.0674 -10.6934,-2.0674l0,0l-8.7685,0zm9.125,-43.7714l-5.8457,28.0878l11.4062,0q17.3233,0 22.9908,-2.0673q5.6674,-2.0674 8.8754,-6.4873q3.2081,-4.42 3.2081,-9.2676l0,0q0,-5.7031 -4.6338,-8.5547l0,0q-2.8516,-1.7109 -12.333,-1.7109l0,0l-23.668,0z"
                id="svg_24" />
            </g>
          </g>
        </g>
        <g id="tagline" fill="#6f7d8a">
          <g transform="matrix(0.765519, 0, 0, 0.778433, 90.0039, 9.11159)" id="svg_25">
            <g id="svg_26">
              <path
                d="m359.19385,298.79122l-3.7793,0l14.6074,-25.7695l4.0606,0l4.2539,25.7695l-3.3399,0l-1.248,-7.418l-10.4238,0l-4.1309,7.418zm9.8437,-17.7012l-4.2363,7.6289l8.5254,0l-1.0019,-6.4687q-0.5801,-3.8496 -0.7207,-6.416l0,0q-0.879,2.2148 -2.5665,5.2558l0,0zm32.1946,17.7012l-3.4453,0l4.7636,-22.834l-8.455,0l0.6152,-2.9355l20.2851,0l-0.6152,2.9355l-8.3848,0l-4.7636,22.834zm29.0347,0l-16.8222,0l5.3789,-25.7695l3.4453,0l-4.7637,22.8515l13.377,0l-0.6153,2.918zm4.6891,-8.332l0,0l3.375,-0.3164l-0.0352,0.8964q0,1.4942 0.6856,2.7334q0.6855,1.2393 2.2676,1.9161q1.582,0.6767 3.7617,0.6767l0,0q3.0937,0 4.7197,-1.3535q1.626,-1.3535 1.626,-3.0937l0,0q0,-1.2129 -0.8613,-2.2149l0,0q-0.8789,-0.9844 -4.7989,-2.6719l0,0q-3.041,-1.3183 -4.1484,-2.0215l0,0q-1.7402,-1.1425 -2.5664,-2.4873q-0.8262,-1.3447 -0.8262,-3.0673l0,0q0,-1.9864 1.0899,-3.586q1.0898,-1.5996 3.1904,-2.4433q2.1006,-0.8438 4.7373,-0.8438l0,0q3.1465,0 5.3086,1.0547q2.1621,1.0547 3.1377,2.8125q0.9756,1.7578 0.9756,3.3574l0,0q0,0.1582 -0.0176,0.5274l0,0l-3.3223,0.2636q0,-1.0898 -0.1933,-1.705l0,0q-0.3516,-1.0723 -1.0899,-1.8106q-0.7383,-0.7383 -2.0302,-1.1865q-1.292,-0.4483 -2.8916,-0.4483l0,0q-2.8125,0 -4.377,1.2657l0,0q-1.1953,0.9668 -1.1953,2.5664l0,0q0,0.9492 0.4922,1.6963q0.4922,0.747 1.7754,1.4677l0,0q0.914,0.5098 4.3418,2.0215l0,0q2.7773,1.2305 3.832,1.9336l0,0q1.4062,0.9317 2.1621,2.2588q0.7559,1.3272 0.7559,3.0147l0,0q0,2.0918 -1.2745,3.8584q-1.2744,1.7666 -3.5244,2.7334q-2.25,0.9668 -5.1504,0.9668l0,0q-4.3769,0 -7.1455,-1.9073q-2.7685,-1.9072 -2.7861,-6.8642zm33.2711,0.5976l-9.7207,0l0.668,-3.1816l9.7031,0l-0.6504,3.1816zm5.8141,7.7344l-3.1817,0l3.3926,-16.207l-2.8477,0l0.5098,-2.461l2.8477,0l0.5449,-2.6543q0.4219,-1.9863 0.8701,-2.8652q0.4482,-0.8789 1.459,-1.4502q1.0107,-0.5713 2.751,-0.5713l0,0q1.2129,0 3.5156,0.5098l0,0l-0.5801,2.7773q-1.6172,-0.4219 -2.707,-0.4219l0,0q-0.9317,0 -1.4151,0.4659q-0.4834,0.4658 -0.8349,2.206l0,0l-0.4219,2.0039l3.5508,0l-0.5098,2.461l-3.5508,0l-3.3925,16.207zm14.4625,-22.166l-3.1641,0l0.7559,-3.6035l3.164,0l-0.7558,3.6035zm-4.6231,22.166l-3.1816,0l3.9023,-18.668l3.1817,0l-3.9024,18.668zm8.3629,0l-3.0234,0l3.9023,-18.668l2.8125,0l-0.791,3.8145q1.4414,-2.1621 2.8213,-3.1992q1.3799,-1.0371 2.8213,-1.0371l0,0q0.9492,0 2.3379,0.6855l0,0l-1.3008,2.9531q-0.8262,-0.5976 -1.8106,-0.5976l0,0q-1.6699,0 -3.4277,1.8633q-1.7578,1.8632 -2.7598,6.6972l0,0l-1.582,7.4883zm9.6637,-6.3809l0,0l3.1816,-0.1933q0,1.3711 0.4219,2.3379q0.4219,0.9668 1.5557,1.582q1.1337,0.6152 2.6455,0.6152l0,0q2.1093,0 3.164,-0.8437q1.0547,-0.8438 1.0547,-1.9863l0,0q0,-0.8262 -0.6328,-1.5645l0,0q-0.6504,-0.7383 -3.1729,-1.8193q-2.5224,-1.0811 -3.2255,-1.5205l0,0q-1.1778,-0.7207 -1.7754,-1.6963q-0.5977,-0.9756 -0.5977,-2.2412l0,0q0,-2.2149 1.7578,-3.7969q1.7578,-1.582 4.9219,-1.582l0,0q3.5156,0 5.3525,1.6259q1.837,1.626 1.9073,4.2803l0,0l-3.1114,0.2109q-0.0703,-1.6875 -1.1953,-2.6718q-1.125,-0.9844 -3.1816,-0.9844l0,0q-1.6524,0 -2.5664,0.7559q-0.9141,0.7558 -0.9141,1.6347l0,0q0,0.8789 0.791,1.5469l0,0q0.5274,0.457 2.7246,1.4062l0,0q3.6563,1.5821 4.6055,2.4961l0,0q1.5117,1.459 1.5117,3.5508l0,0q0,1.3887 -0.8525,2.7246q-0.8525,1.336 -2.6016,2.1358q-1.749,0.7998 -4.122,0.7998l0,0q-3.2344,0 -5.502,-1.5996l0,0q-2.2676,-1.5996 -2.1445,-5.2032zm25.5367,3.7969l0,0l-0.5273,2.6016q-1.1426,0.2988 -2.2149,0.2988l0,0q-1.8984,0 -3.0234,-0.9316l0,0q-0.8438,-0.7032 -0.8438,-1.9161l0,0q0,-0.6152 0.4571,-2.83l0,0l2.2675,-10.8457l-2.5136,0l0.5097,-2.461l2.5137,0l0.9668,-4.5879l3.6387,-2.1972l-1.4239,6.7851l3.1289,0l-0.5273,2.461l-3.1113,0l-2.1621,10.3183q-0.4043,1.9688 -0.4043,2.3555l0,0q0,0.5625 0.3252,0.8613q0.3252,0.2989 1.0634,0.2989l0,0q1.0547,0 1.8809,-0.211zm26.2531,-4.2187l0,0l3.1817,0.3339q-1.1954,3.4981 -3.4014,5.1944q-2.2061,1.6963 -5.0186,1.6963l0,0q-3.041,0 -4.9306,-1.9688q-1.8897,-1.9687 -1.8897,-5.5019l0,0q0,-3.0586 1.2129,-6.0117q1.2129,-2.9532 3.4717,-4.4913q2.2588,-1.538 5.1592,-1.538l0,0q3.0058,0 4.7636,1.6962q1.7579,1.6963 1.7579,4.4913l0,0l-3.1289,0.2109q-0.0176,-1.7754 -1.0284,-2.7774q-1.0107,-1.0019 -2.6631,-1.0019l0,0q-1.916,0 -3.3222,1.2129q-1.4063,1.2129 -2.2061,3.6826q-0.7998,2.4697 -0.7998,4.7549l0,0q0,2.3906 1.0547,3.5859q1.0547,1.1953 2.6016,1.1953l0,0q1.5468,0 2.9619,-1.1777q1.415,-1.1777 2.2236,-3.5859zm8.5387,6.8027l-3.0234,0l3.9023,-18.668l2.8125,0l-0.791,3.8145q1.4414,-2.1621 2.8213,-3.1992q1.3799,-1.0371 2.8213,-1.0371l0,0q0.9492,0 2.3379,0.6855l0,0l-1.3008,2.9531q-0.8262,-0.5976 -1.8106,-0.5976l0,0q-1.6699,0 -3.4277,1.8633q-1.7578,1.8632 -2.7598,6.6972l0,0l-1.582,7.4883zm8.1695,7.207l0,0l0.1934,-2.9882q0.9844,0.2812 1.916,0.2812l0,0q0.9668,0 1.5645,-0.4395l0,0q0.7734,-0.58 1.6875,-2.1796l0,0l1.0195,-1.8282l-3.1113,-18.7207l3.1289,0l1.4062,9.4395q0.4219,2.7949 0.7207,5.5898l0,0l8.3496,-15.0293l3.3223,0l-11.9004,21.1465q-1.7227,3.0938 -3.0586,4.0957q-1.3359,1.002 -3.0762,1.002l0,0q-1.1074,0 -2.1621,-0.3692zm21.2125,-0.0527l-3.1816,0l5.3965,-25.8223l2.9355,0l-0.5449,2.6016q1.6348,-1.7051 2.9267,-2.3643q1.292,-0.6591 2.7334,-0.6591l0,0q2.6719,0 4.4297,1.9423q1.7578,1.9424 1.7578,5.5635l0,0q0,2.918 -0.9667,5.3174q-0.9668,2.3994 -2.3731,3.8584q-1.4062,1.459 -2.8477,2.1445q-1.4414,0.6856 -2.9531,0.6856l0,0q-3.3574,0 -5.2031,-3.4102l0,0l-2.1094,10.1426zm3.1114,-14.7832l0,0q0,2.0918 0.2988,2.9004l0,0q0.4394,1.1426 1.4414,1.8457q1.0019,0.7031 2.3203,0.7031l0,0q2.7422,0 4.4297,-3.0849q1.6875,-3.085 1.6875,-6.3018l0,0q0,-2.3731 -1.1338,-3.665q-1.1338,-1.292 -2.8213,-1.292l0,0q-1.2129,0 -2.25,0.6416q-1.0371,0.6416 -1.9248,1.916q-0.8877,1.2744 -1.4678,3.1201q-0.58,1.8457 -0.58,3.2168zm23.1285,5.0449l0,0l-0.5274,2.6016q-1.1426,0.2988 -2.2148,0.2988l0,0q-1.8985,0 -3.0235,-0.9316l0,0q-0.8437,-0.7032 -0.8437,-1.9161l0,0q0,-0.6152 0.457,-2.83l0,0l2.2676,-10.8457l-2.5137,0l0.5098,-2.461l2.5137,0l0.9668,-4.5879l3.6386,-2.1972l-1.4238,6.7851l3.1289,0l-0.5273,2.461l-3.1114,0l-2.1621,10.3183q-0.4043,1.9688 -0.4043,2.3555l0,0q0,0.5625 0.3252,0.8613q0.3252,0.2989 1.0635,0.2989l0,0q1.0547,0 1.8809,-0.211zm3.5289,-4.5l0,0q0,-5.4668 3.2168,-9.0527l0,0q2.6543,-2.9531 6.9609,-2.9531l0,0q3.375,0 5.4404,2.1093q2.0655,2.1094 2.0655,5.6953l0,0q0,3.2168 -1.3008,5.9854q-1.3008,2.7685 -3.7002,4.2451q-2.3994,1.4766 -5.0537,1.4766l0,0q-2.1797,0 -3.9639,-0.9317q-1.7842,-0.9316 -2.7246,-2.6367q-0.9404,-1.7051 -0.9404,-3.9375zm3.1816,-0.3164l0,0q0,2.6367 1.2656,3.999q1.2657,1.3623 3.2168,1.3623l0,0q1.0196,0 2.0215,-0.413q1.002,-0.4131 1.8633,-1.2569q0.8613,-0.8437 1.4678,-1.9248q0.6064,-1.081 0.9756,-2.3291l0,0q0.5449,-1.7402 0.5449,-3.3398l0,0q0,-2.5313 -1.2744,-3.9287q-1.2744,-1.3975 -3.208,-1.3975l0,0q-1.4942,0 -2.7246,0.7119q-1.2305,0.7119 -2.2237,2.083q-0.9931,1.3711 -1.459,3.1904q-0.4658,1.8194 -0.4658,3.2432zm16.5016,9.0879l0,0l3.2168,0.2988q-0.0352,1.0899 0.2636,1.6348q0.2989,0.5449 0.9493,0.8437l0,0q0.8613,0.3868 2.2324,0.3868l0,0q2.8828,0 4.1484,-1.4942l0,0q0.8262,-1.0019 1.5293,-4.3594l0,0l0.3164,-1.5117q-2.4785,2.5137 -5.2734,2.5137l0,0q-2.8301,0 -4.7373,-2.083q-1.9072,-2.083 -1.9072,-5.8975l0,0q0,-3.1465 1.5029,-5.7832q1.5029,-2.6367 3.5771,-3.9814q2.0743,-1.3447 4.2715,-1.3447l0,0q3.6738,0 5.6602,3.4804l0,0l0.6328,-3.0586l2.918,0l-3.7618,18.0176q-0.6152,2.9707 -1.6171,4.6318q-1.002,1.6612 -2.7862,2.5752q-1.7842,0.9141 -4.1221,0.9141l0,0q-2.25,0 -3.8759,-0.5801q-1.626,-0.5801 -2.4258,-1.6963q-0.7998,-1.1162 -0.7998,-2.5576l0,0q0,-0.4394 0.0879,-0.9492zm3.9726,-9.9492l0,0q0,1.916 0.3692,2.8828l0,0q0.5273,1.3535 1.5029,2.0654q0.9756,0.7119 2.1709,0.7119l0,0q1.5645,0 3.1113,-1.0986q1.5469,-1.0986 2.5049,-3.4014q0.958,-2.3027 0.958,-4.3945l0,0q0,-2.3027 -1.2744,-3.665q-1.2744,-1.3623 -3.1553,-1.3623l0,0q-1.1601,0 -2.25,0.624q-1.0898,0.624 -2.0302,1.8984q-0.9405,1.2744 -1.4239,3.0498q-0.4834,1.7754 -0.4834,2.6895zm19.6481,8.2617l-3.0235,0l3.9024,-18.668l2.8125,0l-0.791,3.8145q1.4414,-2.1621 2.8213,-3.1992q1.3798,-1.0371 2.8212,-1.0371l0,0q0.9493,0 2.3379,0.6855l0,0l-1.3007,2.9531q-0.8262,-0.5976 -1.8106,-0.5976l0,0q-1.6699,0 -3.4277,1.8633q-1.7578,1.8632 -2.7598,6.6972l0,0l-1.582,7.4883zm21.9508,-2.3203l0,0q-1.6524,1.4238 -3.1817,2.083q-1.5293,0.6592 -3.2695,0.6592l0,0q-2.584,0 -4.166,-1.5205q-1.5821,-1.5205 -1.5821,-3.8936l0,0q0,-1.5644 0.712,-2.7685q0.7119,-1.2041 1.8896,-1.9336q1.1777,-0.7295 2.8828,-1.0459l0,0q1.0723,-0.211 4.0694,-0.334q2.997,-0.1231 4.2978,-0.6328l0,0q0.3691,-1.3008 0.3691,-2.1621l0,0q0,-1.1075 -0.8085,-1.7403l0,0q-1.1075,-0.8789 -3.2344,-0.8789l0,0q-2.0039,0 -3.2783,0.8877q-1.2745,0.8877 -1.8545,2.5225l0,0l-3.2168,-0.2813q0.9843,-2.7773 3.1201,-4.2539q2.1357,-1.4765 5.3877,-1.4765l0,0q3.4629,0 5.4844,1.6523l0,0q1.5468,1.2305 1.5468,3.1992l0,0q0,1.4942 -0.4394,3.4629l0,0l-1.0371,4.6406q-0.4922,2.2149 -0.4922,3.6035l0,0q0,0.879 0.3867,2.5313l0,0l-3.2168,0q-0.2637,-0.9141 -0.3691,-2.3203zm1.1777,-7.1367l0,0q-0.668,0.2636 -1.4326,0.4043q-0.7647,0.1406 -2.5576,0.2988l0,0q-2.7774,0.2461 -3.92,0.624q-1.1425,0.3779 -1.7226,1.2041q-0.5801,0.8262 -0.5801,1.8281l0,0q0,1.336 0.9229,2.1973q0.9228,0.8613 2.6279,0.8613l0,0q1.582,0 3.041,-0.8349q1.459,-0.835 2.3027,-2.3291q0.8438,-1.4942 1.3184,-4.2539zm8.275,16.6113l-3.1816,0l5.3964,-25.8223l2.9356,0l-0.5449,2.6016q1.6347,-1.7051 2.9267,-2.3643q1.292,-0.6591 2.7334,-0.6591l0,0q2.6719,0 4.4297,1.9423q1.7578,1.9424 1.7578,5.5635l0,0q0,2.918 -0.9668,5.3174q-0.9668,2.3994 -2.373,3.8584q-1.4063,1.459 -2.8477,2.1445q-1.4414,0.6856 -2.9531,0.6856l0,0q-3.3574,0 -5.2031,-3.4102l0,0l-2.1094,10.1426zm3.1113,-14.7832l0,0q0,2.0918 0.2988,2.9004l0,0q0.4395,1.1426 1.4415,1.8457q1.0019,0.7031 2.3203,0.7031l0,0q2.7422,0 4.4297,-3.0849q1.6875,-3.085 1.6875,-6.3018l0,0q0,-2.3731 -1.1338,-3.665q-1.1338,-1.292 -2.8213,-1.292l0,0q-1.2129,0 -2.25,0.6416q-1.0371,0.6416 -1.9248,1.916q-0.8877,1.2744 -1.4678,3.1201q-0.5801,1.8457 -0.5801,3.2168zm18.8746,7.6289l-3.1816,0l5.3789,-25.7695l3.1816,0l-2.0566,9.8965q1.7754,-1.7227 3.3047,-2.4698q1.5293,-0.747 3.1465,-0.747l0,0q2.3203,0 3.6035,1.2216q1.2832,1.2217 1.2832,3.2256l0,0q0,0.9844 -0.5625,3.6211l0,0l-2.3027,11.0215l-3.1817,0l2.3731,-11.3027q0.5097,-2.461 0.5097,-3.0938l0,0q0,-0.914 -0.6328,-1.4941q-0.6328,-0.5801 -1.8281,-0.5801l0,0q-1.7227,0 -3.2871,0.9053q-1.5645,0.9052 -2.4522,2.4785q-0.8877,1.5732 -1.6259,5.0713l0,0l-1.67,8.0156zm24.9215,-22.166l-3.164,0l0.7558,-3.6035l3.1641,0l-0.7559,3.6035zm-4.623,22.166l-3.1817,0l3.9024,-18.668l3.1816,0l-3.9023,18.668zm18.2242,-6.8027l0,0l3.1816,0.3339q-1.1953,3.4981 -3.4013,5.1944q-2.2061,1.6963 -5.0186,1.6963l0,0q-3.041,0 -4.9307,-1.9688q-1.8896,-1.9687 -1.8896,-5.5019l0,0q0,-3.0586 1.2129,-6.0117q1.2129,-2.9532 3.4717,-4.4913q2.2588,-1.538 5.1591,-1.538l0,0q3.0059,0 4.7637,1.6962q1.7578,1.6963 1.7578,4.4913l0,0l-3.1289,0.2109q-0.0176,-1.7754 -1.0283,-2.7774q-1.0107,-1.0019 -2.6631,-1.0019l0,0q-1.916,0 -3.3223,1.2129q-1.4062,1.2129 -2.206,3.6826q-0.7998,2.4697 -0.7998,4.7549l0,0q0,2.3906 1.0547,3.5859q1.0547,1.1953 2.6015,1.1953l0,0q1.5469,0 2.962,-1.1777q1.415,-1.1777 2.2236,-3.5859zm23.5988,-15.3633l-3.164,0l0.7558,-3.6035l3.1641,0l-0.7559,3.6035zm-4.623,22.166l-3.1817,0l3.9024,-18.668l3.1816,0l-3.9023,18.668zm8.5211,0l-3.1817,0l3.9024,-18.668l2.8828,0l-0.6856,3.252q1.8809,-1.916 3.5157,-2.7949q1.6347,-0.8789 3.3398,-0.8789l0,0q2.2676,0 3.5596,1.2304q1.292,1.2305 1.292,3.2871l0,0q0,1.0371 -0.4571,3.2696l0,0l-2.373,11.3027l-3.1817,0l2.4786,-11.8301q0.3691,-1.7226 0.3691,-2.5488l0,0q0,-0.9316 -0.6416,-1.5117q-0.6416,-0.5801 -1.8545,-0.5801l0,0q-2.4434,0 -4.3506,1.7578q-1.9072,1.7578 -2.8037,6.0293l0,0l-1.8105,8.6836zm25.4839,0l-3.5332,0l-3.0586,-18.668l3.0938,0l1.5996,10.2832q0.2637,1.6875 0.6504,5.502l0,0q0.9141,-1.9863 2.3379,-4.5527l0,0l6.2402,-11.2325l3.3574,0l-10.6875,18.668zm23.8668,-6.3457l0,0l3.0938,0.3164q-0.668,2.3027 -3.0674,4.377q-2.3994,2.0742 -5.7217,2.0742l0,0q-2.0742,0 -3.8056,-0.958q-1.7315,-0.958 -2.6368,-2.7862q-0.9052,-1.8281 -0.9052,-4.166l0,0q0,-3.0586 1.415,-5.9326q1.4151,-2.874 3.6651,-4.2715q2.25,-1.3974 4.8691,-1.3974l0,0q3.3398,0 5.335,2.0742q1.9951,2.0742 1.9951,5.6601l0,0q0,1.3711 -0.2461,2.8125l0,0l-13.7461,0q-0.0703,0.545 -0.0703,0.9844l0,0q0,2.6191 1.2041,3.999q1.2041,1.3799 2.9443,1.3799l0,0q1.6348,0 3.2168,-1.0723q1.582,-1.0722 2.4609,-3.0937zm-9.2461,-4.6231l0,0l10.4766,0q0.0176,-0.4921 0.0176,-0.7031l0,0q0,-2.3906 -1.1953,-3.665q-1.1953,-1.2744 -3.0762,-1.2744l0,0q-2.0391,0 -3.7178,1.4062q-1.6787,1.4063 -2.5049,4.2363zm19.1383,10.9688l-3.1816,0l3.9023,-18.668l2.8828,0l-0.6855,3.252q1.8809,-1.916 3.5156,-2.7949q1.6348,-0.8789 3.3399,-0.8789l0,0q2.2675,0 3.5595,1.2304q1.292,1.2305 1.292,3.2871l0,0q0,1.0371 -0.457,3.2696l0,0l-2.373,11.3027l-3.1817,0l2.4785,-11.8301q0.3692,-1.7226 0.3692,-2.5488l0,0q0,-0.9316 -0.6416,-1.5117q-0.6416,-0.5801 -1.8545,-0.5801l0,0q-2.4434,0 -4.3506,1.7578q-1.9072,1.7578 -2.8037,6.0293l0,0l-1.8106,8.6836zm24.6754,-2.584l0,0l-0.5273,2.6016q-1.1426,0.2988 -2.2149,0.2988l0,0q-1.8984,0 -3.0234,-0.9316l0,0q-0.8438,-0.7032 -0.8438,-1.9161l0,0q0,-0.6152 0.4571,-2.83l0,0l2.2676,-10.8457l-2.5137,0l0.5097,-2.461l2.5137,0l0.9668,-4.5879l3.6387,-2.1972l-1.4238,6.7851l3.1289,0l-0.5274,2.461l-3.1113,0l-2.1621,10.3183q-0.4043,1.9688 -0.4043,2.3555l0,0q0,0.5625 0.3252,0.8613q0.3252,0.2989 1.0635,0.2989l0,0q1.0546,0 1.8808,-0.211zm3.5289,-4.5l0,0q0,-5.4668 3.2168,-9.0527l0,0q2.6543,-2.9531 6.961,-2.9531l0,0q3.375,0 5.4404,2.1093q2.0654,2.1094 2.0654,5.6953l0,0q0,3.2168 -1.3008,5.9854q-1.3007,2.7685 -3.7002,4.2451q-2.3994,1.4766 -5.0537,1.4766l0,0q-2.1797,0 -3.9638,-0.9317q-1.7842,-0.9316 -2.7246,-2.6367q-0.9405,-1.7051 -0.9405,-3.9375zm3.1817,-0.3164l0,0q0,2.6367 1.2656,3.999q1.2656,1.3623 3.2168,1.3623l0,0q1.0195,0 2.0215,-0.413q1.0019,-0.4131 1.8633,-1.2569q0.8613,-0.8437 1.4677,-1.9248q0.6065,-1.081 0.9756,-2.3291l0,0q0.5449,-1.7402 0.5449,-3.3398l0,0q0,-2.5313 -1.2744,-3.9287q-1.2744,-1.3975 -3.208,-1.3975l0,0q-1.4941,0 -2.7246,0.7119q-1.2305,0.7119 -2.2236,2.083q-0.9932,1.3711 -1.459,3.1904q-0.4658,1.8194 -0.4658,3.2432zm19.7007,7.4004l-3.0234,0l3.9024,-18.668l2.8125,0l-0.7911,3.8145q1.4414,-2.1621 2.8213,-3.1992q1.3799,-1.0371 2.8213,-1.0371l0,0q0.9492,0 2.3379,0.6855l0,0l-1.3008,2.9531q-0.8261,-0.5976 -1.8105,-0.5976l0,0q-1.6699,0 -3.4278,1.8633q-1.7578,1.8632 -2.7597,6.6972l0,0l-1.5821,7.4883zm8.1696,7.207l0,0l0.1933,-2.9882q0.9844,0.2812 1.9161,0.2812l0,0q0.9668,0 1.5644,-0.4395l0,0q0.7734,-0.58 1.6875,-2.1796l0,0l1.0195,-1.8282l-3.1113,-18.7207l3.1289,0l1.4063,9.4395q0.4218,2.7949 0.7207,5.5898l0,0l8.3496,-15.0293l3.3222,0l-11.9003,21.1465q-1.7227,3.0938 -3.0586,4.0957q-1.336,1.002 -3.0762,1.002l0,0q-1.1074,0 -2.1621,-0.3692zm42.5832,-9.5273l0,0q-1.6524,1.4238 -3.1817,2.083q-1.5293,0.6592 -3.2695,0.6592l0,0q-2.584,0 -4.166,-1.5205q-1.582,-1.5205 -1.582,-3.8936l0,0q0,-1.5644 0.7119,-2.7685q0.7119,-1.2041 1.8896,-1.9336q1.1778,-0.7295 2.8828,-1.0459l0,0q1.0723,-0.211 4.0694,-0.334q2.997,-0.1231 4.2978,-0.6328l0,0q0.3692,-1.3008 0.3692,-2.1621l0,0q0,-1.1075 -0.8086,-1.7403l0,0q-1.1074,-0.8789 -3.2344,-0.8789l0,0q-2.0039,0 -3.2783,0.8877q-1.2744,0.8877 -1.8545,2.5225l0,0l-3.2168,-0.2813q0.9844,-2.7773 3.1201,-4.2539q2.1357,-1.4765 5.3877,-1.4765l0,0q3.4629,0 5.4844,1.6523l0,0q1.5469,1.2305 1.5469,3.1992l0,0q0,1.4942 -0.4395,3.4629l0,0l-1.0371,4.6406q-0.4922,2.2149 -0.4922,3.6035l0,0q0,0.879 0.3867,2.5313l0,0l-3.2168,0q-0.2636,-0.9141 -0.3691,-2.3203zm1.1777,-7.1367l0,0q-0.668,0.2636 -1.4326,0.4043q-0.7646,0.1406 -2.5576,0.2988l0,0q-2.7774,0.2461 -3.9199,0.624q-1.1426,0.3779 -1.7227,1.2041q-0.5801,0.8262 -0.5801,1.8281l0,0q0,1.336 0.9229,2.1973q0.9228,0.8613 2.6279,0.8613l0,0q1.582,0 3.041,-0.8349q1.459,-0.835 2.3028,-2.3291q0.8437,-1.4942 1.3183,-4.2539zm9.8395,9.457l-3.1817,0l3.9024,-18.668l2.8828,0l-0.6856,3.252q1.8809,-1.916 3.5157,-2.7949q1.6347,-0.8789 3.3398,-0.8789l0,0q2.2676,0 3.5596,1.2304q1.292,1.2305 1.292,3.2871l0,0q0,1.0371 -0.4571,3.2696l0,0l-2.373,11.3027l-3.1816,0l2.4785,-11.8301q0.3691,-1.7226 0.3691,-2.5488l0,0q0,-0.9316 -0.6416,-1.5117q-0.6416,-0.5801 -1.8545,-0.5801l0,0q-2.4433,0 -4.3506,1.7578q-1.9072,1.7578 -2.8037,6.0293l0,0l-1.8105,8.6836zm29.2633,0l0.5625,-2.707q-2.7247,3.1289 -5.6954,3.1289l0,0q-2.6543,0 -4.4209,-1.96q-1.7666,-1.9599 -1.7666,-5.6865l0,0q0,-3.4102 1.3975,-6.2315q1.3975,-2.8212 3.498,-4.2275q2.1006,-1.4062 4.21,-1.4062l0,0q3.4805,0 5.2559,3.3574l0,0l2.1093,-10.0371l3.1641,0l-5.3789,25.7695l-2.9355,0zm-8.1563,-7.8223l0,0q0,1.9512 0.3867,3.0762q0.3867,1.125 1.3184,1.8721q0.9316,0.747 2.2324,0.747l0,0q2.1621,0 3.9199,-2.25l0,0q2.3555,-2.9882 2.3555,-7.3828l0,0q0,-2.2148 -1.1602,-3.4629q-1.1601,-1.248 -2.9179,-1.248l0,0q-1.1426,0 -2.083,0.5098q-0.9405,0.5097 -1.8633,1.7314q-0.9229,1.2217 -1.5557,3.1025q-0.6328,1.8809 -0.6328,3.3047zm30.1203,7.8223l-3.1816,0l3.9023,-18.668l3.1817,0l-0.6504,3.0762q1.7754,-1.9863 3.1728,-2.7422q1.3975,-0.7558 3.0322,-0.7558l0,0q1.7403,0 2.9092,0.9228q1.169,0.9229 1.5381,2.5752l0,0q1.4238,-1.7578 2.9971,-2.6279q1.5732,-0.8701 3.3135,-0.8701l0,0q2.3378,0 3.5068,1.1074q1.1689,1.1074 1.1689,3.1113l0,0q0,0.8613 -0.4043,2.8477l0,0l-2.5136,12.0234l-3.1817,0l2.5664,-12.3398q0.334,-1.5118 0.334,-2.1622l0,0q0,-0.914 -0.5801,-1.4414q-0.58,-0.5273 -1.6347,-0.5273l0,0q-1.4239,0 -2.9004,0.8613q-1.4766,0.8614 -2.294,2.2588q-0.8173,1.3975 -1.4326,4.2979l0,0l-1.8984,9.0527l-3.1817,0l2.6368,-12.6035q0.2812,-1.2832 0.2812,-1.8281l0,0q0,-0.9141 -0.5713,-1.4766q-0.5713,-0.5625 -1.4853,-0.5625l0,0q-1.3535,0 -2.8389,0.8613q-1.4853,0.8614 -2.417,2.3994q-0.9316,1.5381 -1.5293,4.3858l0,0l-1.8457,8.8242zm34.9059,-22.166l-3.1641,0l0.7559,-3.6035l3.164,0l-0.7558,3.6035zm-4.6231,22.166l-3.1816,0l3.9023,-18.668l3.1817,0l-3.9024,18.668zm5.1637,1.6875l0,0l3.2168,0.2988q-0.0352,1.0899 0.2637,1.6348q0.2988,0.5449 0.9492,0.8437l0,0q0.8613,0.3868 2.2324,0.3868l0,0q2.8828,0 4.1484,-1.4942l0,0q0.8262,-1.0019 1.5293,-4.3594l0,0l0.3164,-1.5117q-2.4785,2.5137 -5.2734,2.5137l0,0q-2.8301,0 -4.7373,-2.083q-1.9072,-2.083 -1.9072,-5.8975l0,0q0,-3.1465 1.5029,-5.7832q1.5029,-2.6367 3.5772,-3.9814q2.0742,-1.3447 4.2714,-1.3447l0,0q3.6739,0 5.6602,3.4804l0,0l0.6328,-3.0586l2.918,0l-3.7617,18.0176q-0.6153,2.9707 -1.6172,4.6318q-1.002,1.6612 -2.7862,2.5752q-1.7841,0.9141 -4.122,0.9141l0,0q-2.25,0 -3.876,-0.5801q-1.626,-0.5801 -2.4258,-1.6963q-0.7998,-1.1162 -0.7998,-2.5576l0,0q0,-0.4394 0.0879,-0.9492zm3.9727,-9.9492l0,0q0,1.916 0.3691,2.8828l0,0q0.5273,1.3535 1.5029,2.0654q0.9756,0.7119 2.1709,0.7119l0,0q1.5645,0 3.1114,-1.0986q1.5468,-1.0986 2.5048,-3.4014q0.958,-2.3027 0.958,-4.3945l0,0q0,-2.3027 -1.2744,-3.665q-1.2744,-1.3623 -3.1552,-1.3623l0,0q-1.1602,0 -2.25,0.624q-1.0899,0.624 -2.0303,1.8984q-0.9404,1.2744 -1.4238,3.0498q-0.4834,1.7754 -0.4834,2.6895zm19.648,8.2617l-3.0234,0l3.9023,-18.668l2.8125,0l-0.791,3.8145q1.4414,-2.1621 2.8213,-3.1992q1.3799,-1.0371 2.8213,-1.0371l0,0q0.9492,0 2.3379,0.6855l0,0l-1.3008,2.9531q-0.8262,-0.5976 -1.8106,-0.5976l0,0q-1.6699,0 -3.4277,1.8633q-1.7578,1.8632 -2.7598,6.6972l0,0l-1.582,7.4883zm21.9508,-2.3203l0,0q-1.6524,1.4238 -3.1817,2.083q-1.5293,0.6592 -3.2695,0.6592l0,0q-2.584,0 -4.166,-1.5205q-1.582,-1.5205 -1.582,-3.8936l0,0q0,-1.5644 0.7119,-2.7685q0.7119,-1.2041 1.8896,-1.9336q1.1778,-0.7295 2.8828,-1.0459l0,0q1.0723,-0.211 4.0694,-0.334q2.997,-0.1231 4.2978,-0.6328l0,0q0.3692,-1.3008 0.3692,-2.1621l0,0q0,-1.1075 -0.8086,-1.7403l0,0q-1.1074,-0.8789 -3.2344,-0.8789l0,0q-2.0039,0 -3.2783,0.8877q-1.2744,0.8877 -1.8545,2.5225l0,0l-3.2168,-0.2813q0.9844,-2.7773 3.1201,-4.2539q2.1357,-1.4765 5.3877,-1.4765l0,0q3.4629,0 5.4844,1.6523l0,0q1.5469,1.2305 1.5469,3.1992l0,0q0,1.4942 -0.4395,3.4629l0,0l-1.0371,4.6406q-0.4922,2.2149 -0.4922,3.6035l0,0q0,0.879 0.3867,2.5313l0,0l-3.2168,0q-0.2636,-0.9141 -0.3691,-2.3203zm1.1777,-7.1367l0,0q-0.668,0.2636 -1.4326,0.4043q-0.7646,0.1406 -2.5576,0.2988l0,0q-2.7774,0.2461 -3.9199,0.624q-1.1426,0.3779 -1.7227,1.2041q-0.5801,0.8262 -0.5801,1.8281l0,0q0,1.336 0.9229,2.1973q0.9228,0.8613 2.6279,0.8613l0,0q1.582,0 3.041,-0.8349q1.459,-0.835 2.3028,-2.3291q0.8437,-1.4942 1.3183,-4.2539zm14.0934,6.873l0,0l-0.5274,2.6016q-1.1425,0.2988 -2.2148,0.2988l0,0q-1.8984,0 -3.0234,-0.9316l0,0q-0.8438,-0.7032 -0.8438,-1.9161l0,0q0,-0.6152 0.457,-2.83l0,0l2.2676,-10.8457l-2.5137,0l0.5098,-2.461l2.5137,0l0.9668,-4.5879l3.6386,-2.1972l-1.4238,6.7851l3.1289,0l-0.5273,2.461l-3.1113,0l-2.1622,10.3183q-0.4043,1.9688 -0.4043,2.3555l0,0q0,0.5625 0.3252,0.8613q0.3252,0.2989 1.0635,0.2989l0,0q1.0547,0 1.8809,-0.211zm10.648,-19.582l-3.164,0l0.7558,-3.6035l3.1641,0l-0.7559,3.6035zm-4.623,22.166l-3.1817,0l3.9024,-18.668l3.1816,0l-3.9023,18.668zm5.9019,-7.084l0,0q0,-5.4668 3.2168,-9.0527l0,0q2.6543,-2.9531 6.961,-2.9531l0,0q3.375,0 5.4404,2.1093q2.0654,2.1094 2.0654,5.6953l0,0q0,3.2168 -1.3008,5.9854q-1.3007,2.7685 -3.7002,4.2451q-2.3994,1.4766 -5.0537,1.4766l0,0q-2.1797,0 -3.9638,-0.9317q-1.7842,-0.9316 -2.7246,-2.6367q-0.9405,-1.7051 -0.9405,-3.9375zm3.1817,-0.3164l0,0q0,2.6367 1.2656,3.999q1.2656,1.3623 3.2168,1.3623l0,0q1.0195,0 2.0215,-0.413q1.0019,-0.4131 1.8633,-1.2569q0.8613,-0.8437 1.4677,-1.9248q0.6065,-1.081 0.9756,-2.3291l0,0q0.5449,-1.7402 0.5449,-3.3398l0,0q0,-2.5313 -1.2744,-3.9287q-1.2744,-1.3975 -3.208,-1.3975l0,0q-1.4941,0 -2.7246,0.7119q-1.2305,0.7119 -2.2236,2.083q-0.9932,1.3711 -1.459,3.1904q-0.4658,1.8194 -0.4658,3.2432zm19.859,7.4004l-3.1817,0l3.9024,-18.668l2.8828,0l-0.6856,3.252q1.8809,-1.916 3.5156,-2.7949q1.6348,-0.8789 3.3399,-0.8789l0,0q2.2676,0 3.5596,1.2304q1.292,1.2305 1.292,3.2871l0,0q0,1.0371 -0.4571,3.2696l0,0l-2.373,11.3027l-3.1817,0l2.4786,-11.8301q0.3691,-1.7226 0.3691,-2.5488l0,0q0,-0.9316 -0.6416,-1.5117q-0.6416,-0.5801 -1.8545,-0.5801l0,0q-2.4434,0 -4.3506,1.7578q-1.9072,1.7578 -2.8037,6.0293l0,0l-1.8105,8.6836zm27.4351,-7.7344l-9.7207,0l0.668,-3.1816l9.7031,0l-0.6504,3.1816zm5.2164,7.7344l-3.0234,0l3.9023,-18.668l2.8125,0l-0.791,3.8145q1.4414,-2.1621 2.8213,-3.1992q1.3799,-1.0371 2.8213,-1.0371l0,0q0.9492,0 2.3379,0.6855l0,0l-1.3008,2.9531q-0.8262,-0.5976 -1.8106,-0.5976l0,0q-1.6699,0 -3.4277,1.8633q-1.7578,1.8632 -2.7598,6.6972l0,0l-1.582,7.4883zm23.0758,-6.3457l0,0l3.0937,0.3164q-0.6679,2.3027 -3.0673,4.377q-2.3994,2.0742 -5.7217,2.0742l0,0q-2.0742,0 -3.8057,-0.958q-1.7314,-0.958 -2.6367,-2.7862q-0.9053,-1.8281 -0.9053,-4.166l0,0q0,-3.0586 1.4151,-5.9326q1.415,-2.874 3.665,-4.2715q2.25,-1.3974 4.8691,-1.3974l0,0q3.3399,0 5.335,2.0742q1.9951,2.0742 1.9951,5.6601l0,0q0,1.3711 -0.2461,2.8125l0,0l-13.7461,0q-0.0703,0.545 -0.0703,0.9844l0,0q0,2.6191 1.2041,3.999q1.2041,1.3799 2.9444,1.3799l0,0q1.6347,0 3.2168,-1.0723q1.582,-1.0722 2.4609,-3.0937zm-9.2461,-4.6231l0,0l10.4766,0q0.0175,-0.4921 0.0175,-0.7031l0,0q0,-2.3906 -1.1953,-3.665q-1.1953,-1.2744 -3.0761,-1.2744l0,0q-2.0391,0 -3.7178,1.4062q-1.6787,1.4063 -2.5049,4.2363zm28.5426,8.6485l0,0q-1.6524,1.4238 -3.1817,2.083q-1.5293,0.6592 -3.2695,0.6592l0,0q-2.584,0 -4.166,-1.5205q-1.582,-1.5205 -1.582,-3.8936l0,0q0,-1.5644 0.7119,-2.7685q0.7119,-1.2041 1.8896,-1.9336q1.1778,-0.7295 2.8828,-1.0459l0,0q1.0723,-0.211 4.0694,-0.334q2.997,-0.1231 4.2978,-0.6328l0,0q0.3692,-1.3008 0.3692,-2.1621l0,0q0,-1.1075 -0.8086,-1.7403l0,0q-1.1074,-0.8789 -3.2344,-0.8789l0,0q-2.0039,0 -3.2783,0.8877q-1.2744,0.8877 -1.8545,2.5225l0,0l-3.2168,-0.2813q0.9844,-2.7773 3.1201,-4.2539q2.1357,-1.4765 5.3877,-1.4765l0,0q3.4629,0 5.4844,1.6523l0,0q1.5469,1.2305 1.5469,3.1992l0,0q0,1.4942 -0.4395,3.4629l0,0l-1.0371,4.6406q-0.4922,2.2149 -0.4922,3.6035l0,0q0,0.879 0.3867,2.5313l0,0l-3.2168,0q-0.2636,-0.9141 -0.3691,-2.3203zm1.1777,-7.1367l0,0q-0.668,0.2636 -1.4326,0.4043q-0.7646,0.1406 -2.5576,0.2988l0,0q-2.7774,0.2461 -3.9199,0.624q-1.1426,0.3779 -1.7227,1.2041q-0.5801,0.8262 -0.5801,1.8281l0,0q0,1.336 0.9229,2.1973q0.9228,0.8613 2.6279,0.8613l0,0q1.582,0 3.041,-0.8349q1.459,-0.835 2.3028,-2.3291q0.8437,-1.4942 1.3183,-4.2539zm18.6813,9.457l0.5625,-2.707q-2.7246,3.1289 -5.6953,3.1289l0,0q-2.6543,0 -4.4209,-1.96q-1.7666,-1.9599 -1.7666,-5.6865l0,0q0,-3.4102 1.3974,-6.2315q1.3975,-2.8212 3.4981,-4.2275q2.1005,-1.4062 4.2099,-1.4062l0,0q3.4805,0 5.2559,3.3574l0,0l2.1094,-10.0371l3.164,0l-5.3789,25.7695l-2.9355,0zm-8.1563,-7.8223l0,0q0,1.9512 0.3867,3.0762q0.3868,1.125 1.3184,1.8721q0.9316,0.747 2.2324,0.747l0,0q2.1621,0 3.9199,-2.25l0,0q2.3555,-2.9882 2.3555,-7.3828l0,0q0,-2.2148 -1.1601,-3.4629q-1.1602,-1.248 -2.918,-1.248l0,0q-1.1426,0 -2.083,0.5098q-0.9405,0.5097 -1.8633,1.7314q-0.9229,1.2217 -1.5557,3.1025q-0.6328,1.8809 -0.6328,3.3047zm24.236,-14.3437l-3.1641,0l0.7559,-3.6035l3.164,0l-0.7558,3.6035zm-4.6231,22.166l-3.1816,0l3.9023,-18.668l3.1817,0l-3.9024,18.668zm8.5211,0l-3.1816,0l3.9023,-18.668l2.8828,0l-0.6855,3.252q1.8808,-1.916 3.5156,-2.7949q1.6348,-0.8789 3.3398,-0.8789l0,0q2.2676,0 3.5596,1.2304q1.292,1.2305 1.292,3.2871l0,0q0,1.0371 -0.457,3.2696l0,0l-2.3731,11.3027l-3.1816,0l2.4785,-11.8301q0.3691,-1.7226 0.3691,-2.5488l0,0q0,-0.9316 -0.6416,-1.5117q-0.6416,-0.5801 -1.8545,-0.5801l0,0q-2.4433,0 -4.3505,1.7578q-1.9073,1.7578 -2.8038,6.0293l0,0l-1.8105,8.6836zm30.9508,-6.3457l0,0l3.0937,0.3164q-0.6679,2.3027 -3.0673,4.377q-2.3995,2.0742 -5.7217,2.0742l0,0q-2.0742,0 -3.8057,-0.958q-1.7314,-0.958 -2.6367,-2.7862q-0.9053,-1.8281 -0.9053,-4.166l0,0q0,-3.0586 1.4151,-5.9326q1.415,-2.874 3.665,-4.2715q2.25,-1.3974 4.8691,-1.3974l0,0q3.3399,0 5.335,2.0742q1.9951,2.0742 1.9951,5.6601l0,0q0,1.3711 -0.2461,2.8125l0,0l-13.7461,0q-0.0703,0.545 -0.0703,0.9844l0,0q0,2.6191 1.2041,3.999q1.2041,1.3799 2.9443,1.3799l0,0q1.6348,0 3.2168,-1.0723q1.5821,-1.0722 2.461,-3.0937zm-9.2461,-4.6231l0,0l10.4766,0q0.0175,-0.4921 0.0175,-0.7031l0,0q0,-2.3906 -1.1953,-3.665q-1.1953,-1.2744 -3.0762,-1.2744l0,0q-2.039,0 -3.7177,1.4062q-1.6787,1.4063 -2.5049,4.2363zm16.2555,4.5879l0,0l3.1816,-0.1933q0,1.3711 0.4219,2.3379q0.4218,0.9668 1.5556,1.582q1.1338,0.6152 2.6455,0.6152l0,0q2.1094,0 3.1641,-0.8437q1.0547,-0.8438 1.0547,-1.9863l0,0q0,-0.8262 -0.6328,-1.5645l0,0q-0.6504,-0.7383 -3.1729,-1.8193q-2.5224,-1.0811 -3.2256,-1.5205l0,0q-1.1777,-0.7207 -1.7753,-1.6963q-0.5977,-0.9756 -0.5977,-2.2412l0,0q0,-2.2149 1.7578,-3.7969q1.7578,-1.582 4.9219,-1.582l0,0q3.5156,0 5.3525,1.6259q1.8369,1.626 1.9073,4.2803l0,0l-3.1114,0.2109q-0.0703,-1.6875 -1.1953,-2.6718q-1.125,-0.9844 -3.1816,-0.9844l0,0q-1.6524,0 -2.5664,0.7559q-0.9141,0.7558 -0.9141,1.6347l0,0q0,0.8789 0.791,1.5469l0,0q0.5274,0.457 2.7246,1.4062l0,0q3.6563,1.5821 4.6055,2.4961l0,0q1.5117,1.459 1.5117,3.5508l0,0q0,1.3887 -0.8525,2.7246q-0.8526,1.336 -2.6016,2.1358q-1.749,0.7998 -4.1221,0.7998l0,0q-3.2343,0 -5.5019,-1.5996l0,0q-2.2676,-1.5996 -2.1445,-5.2032zm18.4,0l0,0l3.1816,-0.1933q0,1.3711 0.4219,2.3379q0.4218,0.9668 1.5556,1.582q1.1338,0.6152 2.6455,0.6152l0,0q2.1094,0 3.1641,-0.8437q1.0547,-0.8438 1.0547,-1.9863l0,0q0,-0.8262 -0.6328,-1.5645l0,0q-0.6504,-0.7383 -3.1729,-1.8193q-2.5224,-1.0811 -3.2256,-1.5205l0,0q-1.1777,-0.7207 -1.7753,-1.6963q-0.5977,-0.9756 -0.5977,-2.2412l0,0q0,-2.2149 1.7578,-3.7969q1.7578,-1.582 4.9219,-1.582l0,0q3.5156,0 5.3525,1.6259q1.8369,1.626 1.9073,4.2803l0,0l-3.1114,0.2109q-0.0703,-1.6875 -1.1953,-2.6718q-1.125,-0.9844 -3.1816,-0.9844l0,0q-1.6524,0 -2.5664,0.7559q-0.9141,0.7558 -0.9141,1.6347l0,0q0,0.8789 0.791,1.5469l0,0q0.5274,0.457 2.7246,1.4062l0,0q3.6563,1.5821 4.6055,2.4961l0,0q1.5117,1.459 1.5117,3.5508l0,0q0,1.3887 -0.8525,2.7246q-0.8526,1.336 -2.6016,2.1358q-1.749,0.7998 -4.1221,0.7998l0,0q-3.2343,0 -5.5019,-1.5996l0,0q-2.2676,-1.5996 -2.1445,-5.2032zm35.9386,3.7969l0,0l-0.5273,2.6016q-1.1426,0.2988 -2.2149,0.2988l0,0q-1.8984,0 -3.0234,-0.9316l0,0q-0.8437,-0.7032 -0.8437,-1.9161l0,0q0,-0.6152 0.457,-2.83l0,0l2.2676,-10.8457l-2.5137,0l0.5098,-2.461l2.5136,0l0.9668,-4.5879l3.6387,-2.1972l-1.4238,6.7851l3.1289,0l-0.5274,2.461l-3.1113,0l-2.1621,10.3183q-0.4043,1.9688 -0.4043,2.3555l0,0q0,0.5625 0.3252,0.8613q0.3252,0.2989 1.0635,0.2989l0,0q1.0547,0 1.8808,-0.211zm3.5289,-4.5l0,0q0,-5.4668 3.2168,-9.0527l0,0q2.6543,-2.9531 6.961,-2.9531l0,0q3.375,0 5.4404,2.1093q2.0654,2.1094 2.0654,5.6953l0,0q0,3.2168 -1.3008,5.9854q-1.3007,2.7685 -3.7001,4.2451q-2.3995,1.4766 -5.0538,1.4766l0,0q-2.1796,0 -3.9638,-0.9317q-1.7842,-0.9316 -2.7246,-2.6367q-0.9405,-1.7051 -0.9405,-3.9375zm3.1817,-0.3164l0,0q0,2.6367 1.2656,3.999q1.2656,1.3623 3.2168,1.3623l0,0q1.0195,0 2.0215,-0.413q1.0019,-0.4131 1.8633,-1.2569q0.8613,-0.8437 1.4677,-1.9248q0.6065,-1.081 0.9756,-2.3291l0,0q0.5449,-1.7402 0.5449,-3.3398l0,0q0,-2.5313 -1.2744,-3.9287q-1.2744,-1.3975 -3.208,-1.3975l0,0q-1.4941,0 -2.7246,0.7119q-1.2305,0.7119 -2.2236,2.083q-0.9932,1.3711 -1.459,3.1904q-0.4658,1.8194 -0.4658,3.2432zm17.2398,0.3164l0,0q0,-5.4668 3.2168,-9.0527l0,0q2.6543,-2.9531 6.961,-2.9531l0,0q3.375,0 5.4404,2.1093q2.0654,2.1094 2.0654,5.6953l0,0q0,3.2168 -1.3008,5.9854q-1.3007,2.7685 -3.7002,4.2451q-2.3994,1.4766 -5.0537,1.4766l0,0q-2.1797,0 -3.9638,-0.9317q-1.7842,-0.9316 -2.7246,-2.6367q-0.9405,-1.7051 -0.9405,-3.9375zm3.1817,-0.3164l0,0q0,2.6367 1.2656,3.999q1.2656,1.3623 3.2168,1.3623l0,0q1.0195,0 2.0215,-0.413q1.0019,-0.4131 1.8632,-1.2569q0.8614,-0.8437 1.4678,-1.9248q0.6065,-1.081 0.9756,-2.3291l0,0q0.5449,-1.7402 0.5449,-3.3398l0,0q0,-2.5313 -1.2744,-3.9287q-1.2744,-1.3975 -3.208,-1.3975l0,0q-1.4941,0 -2.7246,0.7119q-1.2305,0.7119 -2.2236,2.083q-0.9932,1.3711 -1.459,3.1904q-0.4658,1.8194 -0.4658,3.2432zm19.6129,7.4004l-3.1817,0l5.3789,-25.7695l3.1817,0l-5.3789,25.7695z"
                id="svg_27" />
            </g>
          </g>
        </g>
      </g>
      <rect id="divider" height="153.42858" width="1" y="101.64286" x="338" fill="#6f7d8a" />
    </g>
  </g>
</svg>
