<svg xmlns="http://www.w3.org/2000/svg" width="512" height="512" viewBox="0 0 512 512" role="img" aria-labelledby="logo-title logo-desc"><defs><linearGradient id="hexGrad" x1="0" y1="0" x2="1" y2="1"><stop offset="0%" stop-color="#0b4f82" /><stop offset="100%" stop-color="#6cb6df" /></linearGradient><linearGradient id="facetDark" x1="0" y1="0" x2="0" y2="1"><stop offset="0%" stop-color="#0a4573" /><stop offset="100%" stop-color="#08385f" /></linearGradient><linearGradient id="facetLight" x1="0" y1="0" x2="1" y2="1"><stop offset="0%" stop-color="#8fd3f2" /><stop offset="100%" stop-color="#5ca9d6" /></linearGradient></defs><g id="logo-mark" transform="translate(256 256) scale(2) translate(-212 -180)"><g id="hexagon-emblem"><polygon points="212,62 314,121 314,239 212,298 110,239 110,121" fill="url(#hexGrad)" /><polygon points="212,62 212,180 110,121" fill="url(#facetDark)" opacity="0.92" /><polygon points="212,62 314,121 212,180" fill="#1a5f93" opacity="0.78" /><polygon points="314,121 314,239 212,180" fill="#5aa9d7" opacity="0.72" /><polygon points="314,239 212,298 212,180" fill="#3789c0" opacity="0.7" /><polygon points="212,298 110,239 212,180" fill="url(#facetLight)" opacity="0.9" /><polygon points="110,239 110,121 212,180" fill="#327bb0" opacity="0.72" /><g id="survey-lines" fill="none" stroke="#e7f6ff" stroke-linecap="round" stroke-linejoin="round"><circle cx="212" cy="180" r="56" stroke-width="4" opacity="0.9" /><circle cx="212" cy="180" r="76" stroke-width="5" opacity="0.95" /><path d="m212,104l-66,114l132,0l-66,-114z" stroke-width="5.5" /><line x1="212" y1="104" x2="212" y2="180" stroke-width="3.2" opacity="0.86" /><line x1="146" y1="218" x2="212" y2="180" stroke-width="3.2" opacity="0.86" /><line x1="278" y1="218" x2="212" y2="180" stroke-width="3.2" opacity="0.86" /><line x1="136" y1="180" x2="288" y2="180" stroke-width="2.4" opacity="0.55" /><line x1="212" y1="104" x2="212" y2="256" stroke-width="2.4" opacity="0.55" /></g><g id="survey-nodes" fill="#f7fbff" opacity="0.98"><circle cx="212" cy="104" r="10" /><circle cx="146" cy="218" r="10" /><circle cx="278" cy="218" r="10" /><circle cx="212" cy="180" r="12" /></g><circle cx="212" cy="180" r="20" fill="#0d4673" opacity="0.28" /></g></g></svg>
